<svg height="512" viewBox="0 0 60 59" width="512" xmlns="http://www.w3.org/2000/svg"><g id="021---Ping-Pong-Table" transform="translate(-1 -1)"><path id="Shape" d="m29 18v9h4v-9c0-.5522847-.4477153-1-1-1h-2c-.5522847 0-1 .4477153-1 1z"/><path id="Shape" d="m6.68 5.33c.78882278.34613252 1.53125254.78957472 2.21 1.32.43136993.34035688 1.05654608.26890818 1.4-.16.1655394-.20909333.2407002-.4756479.2087773-.74041996-.0319229-.26477205-.1682844-.50582393-.3787773-.66958004-.9720065-.77064852-2.05843817-1.3847186-3.22-1.82-.35724138-1.40830857-1.6723128-2.35820963-3.12153657-2.25474513-1.44922377.10346449-2.61601258 1.23055309-2.76956361 2.67532869-.15355103 1.44477559.7502748 2.79192952 2.14537808 3.19768964s2.88045393-.24651154 3.5257221-1.5482732z"/><path id="Shape" d="m30.21 7.48c-.8735919 1.06091273-1.6785623 2.17651491-2.41 3.34-.2634624.4618613-.1194165 1.0491348.3278566 1.3366675s1.041346.1747642 1.3521434-.2566675c.691467-1.0954809 1.4495607-2.1474611 2.27-3.15.2541834-.27181167.3364045-.66228776.2134132-1.01351975-.1229914-.35123199-.4308483-.60511395-.7990733-.65897601s-.7359011.10120643-.9543399.40249576z"/><path id="Shape" d="m18.64 24.38c.5346344-.1285208.8652036-.664579.74-1.2-.33-1.37-.68-2.69-1.06-3.93-.1846092-.4947957-.7221481-.7607423-1.2274761-.6072919s-.8042203.6733917-.6825239 1.1872919c.36 1.2.71 2.48 1 3.81.0613055.2634228.2266987.4907796.4584519.6302083.2317532.1394288.5101004.1790377.7715481.1097917z"/><path id="Shape" d="m15.69 14.83c.5017535-.2272126.7253043-.8173867.5-1.32-.561744-1.2613105-1.2064912-2.4839917-1.93-3.66-.2927109-.46944203-.910558-.6127109-1.38-.31999999-.469442.29271092-.6127109.91055799-.32 1.37999999.6814763 1.0968976 1.2862533 2.2396256 1.81 3.42.2272126.5017535.8173867.7253043 1.32.5z"/><path id="Shape" d="m25.08 20.67c.52-1.27 1.05-2.48 1.59-3.61.1158411-.2410827.1302755-.5185241.0400777-.7703263-.0901978-.2518023-.2775094-.4569765-.5200777-.5696737-.4998225-.2346165-1.0952085-.0197404-1.33.48-.55 1.16-1.1 2.41-1.63 3.72-.1605684.3354517-.1217162.7323.1008625 1.0302409.2225788.2979408.5921121.4477516.9593294.3889173s.6714511-.3165938.7898081-.6691582z"/><path id="Shape" d="m38.72 1.44c-1.3813402.39215836-2.6935743.99598844-3.89 1.79-.4149264.31816691-.5146987.90226974-.2289112 1.34012766.2857875.43785793.860643.58163481 1.3189112.32987234 1.0251199-.67748267 2.1482131-1.19349849 3.33-1.53.5329548-.14635547.8463554-.69704522.7-1.22999999-.1463555-.53295478-.6970452-.84635545-1.23-.70000001z"/><path id="Shape" d="m49.07 3.21c-1.2082894-.77173359-2.5219033-1.36454398-3.9-1.76-.5329548-.14911686-1.0858831.16204524-1.235.69500001-.1491168.53295477.1620452 1.08588309.695 1.23499999 1.1895845.34468836 2.324231.85645771 3.37 1.52.4666806.29547234 1.0845277.15668061 1.38-.31s.1566806-1.08452766-.31-1.38z"/><path id="Shape" d="m55.85 12.12c.2291251-.1369809.3939699-.3598867.4578305-.6190853.0638605-.2591985.0214348-.5331709-.1178305-.7609147-.7106941-1.18992886-1.5166663-2.32029641-2.41-3.38-.2304363-.27330818-.5891764-.40291904-.9410864-.34000943-.35191.0629096-.6435263.30878221-.765.645-.1214737.33621778-.0543499.71170125.1760864.98500943.8221227.98136801 1.567649 2.0244362 2.23 3.12.281719.4748931.8950224.6315765 1.37.35z"/><path id="Shape" d="m59.79 25.45c-.265544.0203885-.5119851.1458604-.6846882.3485989-.1727032.2027385-.2573994.465993-.2353118.7314011.06.81.09 1.64.11 2.47h-36.91c.27-.47 0 0 1-2.75.119947-.5040926-.165035-1.0163082-.6566111-1.1801668-.491576-.1638587-1.026891.0749245-1.2333889.5501668-.29.87-.78 2.38-.78 2.38-.3006637-.0679051-.6158421.0066399-.8542298.2020396-.2383877.1953998-.373343.4898169-.3657702.7979604h-17.18c-.55228475 0-1 .4477153-1 1v2c0 .5522847.44771525 1 1 1h58c.5522847 0 1-.4477153 1-1 0-2.15 0-3.54-.14-5.62-.0179288-.2654608-.140908-.5128324-.341723-.6873725-.2008149-.1745401-.4629072-.2618568-.728277-.2426275z"/><path id="Shape" d="m59.2 21.5c.267885-.048025.5046241-.2031601.6555889-.4296074.1509649-.2264472.203113-.504643.1444111-.7703926-.3011851-1.3545468-.6818435-2.6901901-1.14-4-.1021733-.358433-.3952036-.6303011-.7602764-.7053706s-.7415999.0591183-.9769116.3481546c-.2353117.2890364-.2903551.684952-.142812 1.027216.413314 1.2390637.7538941 2.5012135 1.02 3.78.0595235.2586729.2194458.4830686.4445326.6237478.2250868.1406793.4968691.186099.7554674.1262522z"/><path id="Rectangle-path" d="m6 35h4v20h-4z"/><path id="Shape" d="m6 58c0 1.1045695.8954305 2 2 2s2-.8954305 2-2v-1h-4z"/><path id="Rectangle-path" d="m52 35h4v20h-4z"/><path id="Shape" d="m52 58c0 1.1045695.8954305 2 2 2s2-.8954305 2-2v-1h-4z"/><path id="Shape" d="m12 36.78v5.66l7.44-7.44h-5.66z"/><path id="Shape" d="m50 36.78-1.78-1.78h-5.66l7.44 7.44z"/><path id="Shape" d="m38.27 10.27s-4.27 4.24.73 9.19c.6944935.7600903 1.5481086 1.3576209 2.5 1.75l7.73-7.73c-.4007518-.9465998-1.0050651-1.7933213-1.77-2.48-4.95-5-9.19-.73-9.19-.73z"/><path id="Shape" d="m49.34 16.17-5.17 5.17c2.41-.38 2.65.31 5.42 3.07.7935206.6795536 1.9763883.6338645 2.7151264-.1048736s.7844272-1.9216058.1048736-2.7151264c-2.78-2.79-3.41-3.02-3.07-5.42z"/></g></svg>